<svg width="148" height="148" viewBox="0 0 148 148" fill="none" xmlns="http://www.w3.org/2000/svg">
<g filter="url(#filter0_b_21_489)">
<circle cx="74" cy="74" r="69" fill="#669542" fill-opacity="0.4"/>
<circle cx="74" cy="74" r="69" stroke="#E0953C" stroke-width="9"/>
</g>
<path fill-rule="evenodd" clip-rule="evenodd" d="M87.2117 62.1835C87.2117 69.5018 81.3775 75.3699 74.1016 75.3699C66.8256 75.3699 60.9914 69.5018 60.9914 62.1835C60.9914 54.8625 66.8256 49 74.1016 49C81.3775 49 87.2117 54.8625 87.2117 62.1835ZM74.1016 98.8331C63.4149 98.8331 54.2899 97.1389 54.2899 90.362C54.2899 83.5823 63.3563 81.8264 74.1016 81.8264C84.7882 81.8264 93.9132 83.5206 93.9132 90.3003C93.9132 97.0772 84.8468 98.8331 74.1016 98.8331ZM92.8141 62.4214C92.8141 66.1521 91.7014 69.6275 89.7492 72.5166C89.5484 72.814 89.7269 73.2151 90.0811 73.2768C90.5691 73.3609 91.0739 73.4086 91.587 73.4226C96.7045 73.5573 101.298 70.2446 102.567 65.2573C104.446 57.8493 98.9271 51.1986 91.8994 51.1986C91.1352 51.1986 90.4046 51.2799 89.6934 51.4258C89.5958 51.4482 89.4926 51.4931 89.4369 51.5801C89.3699 51.6867 89.4201 51.8297 89.4871 51.9223C91.5982 54.8984 92.8141 58.5281 92.8141 62.4214ZM101.289 78.6276C104.728 79.3036 106.99 80.6837 107.927 82.6892C108.719 84.3358 108.719 86.246 107.927 87.8897C106.493 91.0005 101.872 91.9991 100.076 92.2571C99.7052 92.3132 99.4068 91.9906 99.4459 91.6176C100.363 82.9978 93.0651 78.9109 91.1771 77.9712C91.0962 77.9292 91.0795 77.8646 91.0879 77.8254C91.0934 77.7973 91.1269 77.7524 91.1883 77.744C95.2738 77.6683 99.6662 78.2293 101.289 78.6276ZM56.9343 73.4224C57.4474 73.4083 57.9494 73.3635 58.4402 73.2765C58.7944 73.2148 58.9729 72.8137 58.7721 72.5163C56.82 69.6272 55.7072 66.1518 55.7072 62.4211C55.7072 58.5278 56.9231 54.8981 59.0343 51.922C59.1012 51.8294 59.1486 51.6864 59.0845 51.5798C59.0287 51.4956 58.9227 51.4479 58.8279 51.4255C58.114 51.2796 57.3833 51.1983 56.6192 51.1983C49.5914 51.1983 44.0724 57.849 45.9548 65.257C47.2237 70.2443 51.8168 73.557 56.9343 73.4224ZM57.4321 77.8237C57.4404 77.8658 57.4237 77.9275 57.3456 77.9724C55.4548 78.912 48.1565 82.9989 49.074 91.6159C49.1131 91.9918 48.8175 92.3116 48.4466 92.2583C46.6506 92.0002 42.0295 91.0016 40.5961 87.8909C39.8013 86.2443 39.8013 84.3369 40.5961 82.6904C41.5331 80.6848 43.7921 79.3047 47.2307 78.6259C48.8565 78.2304 53.2461 77.6694 57.3345 77.7452C57.3958 77.7536 57.4265 77.7985 57.4321 77.8237Z" fill="white"/>
<defs>
<filter id="filter0_b_21_489" x="-8.5" y="-8.5" width="165" height="165" filterUnits="userSpaceOnUse" color-interpolation-filters="sRGB">
<feFlood flood-opacity="0" result="BackgroundImageFix"/>
<feGaussianBlur in="BackgroundImageFix" stdDeviation="4.5"/>
<feComposite in2="SourceAlpha" operator="in" result="effect1_backgroundBlur_21_489"/>
<feBlend mode="normal" in="SourceGraphic" in2="effect1_backgroundBlur_21_489" result="shape"/>
</filter>
</defs>
</svg>
