<svg width="77" height="77" viewBox="0 0 77 77" fill="none" xmlns="http://www.w3.org/2000/svg">
<rect width="77" height="77" rx="15" fill="#669542" fill-opacity="0.65"/>
<path fill-rule="evenodd" clip-rule="evenodd" d="M29.594 21H46.4042C52.526 21 55.982 24.4722 56 30.594V47.406C56 53.526 52.526 57 46.4042 57H29.594C23.4722 57 20 53.526 20 47.406V30.594C20 24.4722 23.4722 21 29.594 21ZM38.0882 49.5479C38.864 49.5479 39.5102 48.9719 39.5822 48.1979V29.8559C39.6542 29.2979 39.386 28.7381 38.9 28.4339C38.3942 28.1279 37.7822 28.1279 37.298 28.4339C36.8102 28.7381 36.542 29.2979 36.5942 29.8559V48.1979C36.686 48.9719 37.3322 49.5479 38.0882 49.5479ZM46.37 49.548C47.126 49.548 47.7722 48.972 47.864 48.198V42.294C47.9162 41.7162 47.648 41.178 47.1602 40.872C46.676 40.566 46.064 40.566 45.56 40.872C45.0722 41.178 44.804 41.7162 44.876 42.294V48.198C44.948 48.972 45.5942 49.548 46.37 49.548ZM31.1942 48.1979C31.1222 48.9719 30.476 49.5479 29.7002 49.5479C28.9262 49.5479 28.2782 48.9719 28.208 48.1979V35.7599C28.154 35.2001 28.4222 34.6439 28.91 34.3379C29.3942 34.0319 30.008 34.0319 30.494 34.3379C30.9782 34.6439 31.25 35.2001 31.1942 35.7599V48.1979Z" fill="white"/>
</svg>
