<svg width="77" height="77" viewBox="0 0 77 77" fill="none" xmlns="http://www.w3.org/2000/svg">
<rect width="77" height="77" rx="15" fill="#669542" fill-opacity="0.65"/>
<path fill-rule="evenodd" clip-rule="evenodd" d="M31.7724 38.1334C31.7724 41.9023 34.8576 44.9688 38.6667 44.9688C42.4585 44.9688 45.5437 41.9023 45.5437 38.1334C45.5437 34.3474 42.4585 31.2809 38.6667 31.2809C34.8576 31.2809 31.7724 34.3474 31.7724 38.1334ZM48.8013 27.6147C51.8176 29.9446 54.3857 33.3537 56.2299 37.6194C56.3678 37.9449 56.3678 38.3218 56.2299 38.6301C52.5415 47.1615 45.9746 52.2667 38.6667 52.2667H38.6494C31.3587 52.2667 24.7919 47.1615 21.1034 38.6301C20.9655 38.3218 20.9655 37.9449 21.1034 37.6194C24.7919 29.088 31.3587 24 38.6494 24H38.6667C42.3207 24 45.785 25.2677 48.8013 27.6147ZM38.6688 42.3953C41.0301 42.3953 42.9605 40.4766 42.9605 38.1296C42.9605 35.7655 41.0301 33.8467 38.6688 33.8467C38.4619 33.8467 38.2551 33.8639 38.0655 33.8981C37.9966 35.7826 36.4453 37.2901 34.5322 37.2901H34.446C34.3943 37.5642 34.3598 37.8383 34.3598 38.1296C34.3598 40.4766 36.2902 42.3953 38.6688 42.3953Z" fill="white"/>
</svg>
