<svg width="22" height="22" viewBox="0 0 22 22" fill="none" xmlns="http://www.w3.org/2000/svg">
<path d="M21.7522 10.7337C22.0826 10.4011 22.0826 9.86179 21.7522 9.52917L14.7479 2.47892C14.0311 1.75743 13.4335 1.15578 12.8952 0.742385C12.327 0.306046 11.7267 0 11 0C10.2733 0 9.67299 0.306046 9.10483 0.742386C8.56654 1.15578 7.96886 1.75742 7.25211 2.47893L0.247833 9.52917C-0.0826109 9.86179 -0.0826109 10.4011 0.247833 10.7337C0.578276 11.0663 1.11403 11.0663 1.44448 10.7337L1.92922 10.2457V13.9739C1.92922 17.6334 4.4317 20.8115 7.97128 21.6472C9.96338 22.1176 12.0366 22.1176 14.0287 21.6472C17.5683 20.8115 20.0708 17.6334 20.0708 13.9739V10.2457L20.5555 10.7337C20.886 11.0663 21.4217 11.0663 21.7522 10.7337Z" fill="white"/>
</svg>
