<svg width="22" height="22" viewBox="0 0 22 22" fill="none" xmlns="http://www.w3.org/2000/svg">
<path fill-rule="evenodd" clip-rule="evenodd" d="M7.72133 0.396985C4.08523 1.21902 1.23215 4.01343 0.356806 7.61007C-0.121841 9.57674 -0.117468 11.6462 0.361179 13.6128C1.25021 17.2657 3.86538 20.3058 7.37359 21.7223L7.5265 21.784C9.04464 22.397 10.7837 21.6588 11.4067 20.1546C11.5781 19.7407 11.9863 19.466 12.4374 19.466H13.811C17.5468 19.466 20.7965 16.9277 21.6734 13.3248C22.1089 11.5356 22.1089 9.66932 21.6734 7.88017L21.5584 7.40774C20.7133 3.93504 17.9585 1.23694 14.4477 0.443229L13.9545 0.331728C11.9981 -0.110576 9.96642 -0.110576 8.00998 0.331728L7.72133 0.396985ZM6.7246 6.55929C6.25431 6.55929 5.87307 6.93754 5.87307 7.40413C5.87307 7.87072 6.25431 8.24897 6.7246 8.24897H14.5303C15.0006 8.24897 15.3818 7.87072 15.3818 7.40413C15.3818 6.93754 15.0006 6.55929 14.5303 6.55929H6.7246ZM8.14382 10.7835C7.67353 10.7835 7.29229 11.1617 7.29229 11.6283C7.29229 12.0949 7.67353 12.4732 8.14382 12.4732H13.1111C13.5814 12.4732 13.9626 12.0949 13.9626 11.6283C13.9626 11.1617 13.5814 10.7835 13.1111 10.7835H8.14382Z" fill="white"/>
</svg>
