<svg width="22" height="21" viewBox="0 0 22 21" fill="none" xmlns="http://www.w3.org/2000/svg">
<path d="M10.0186 7.72708H10.2973V9.4217L9.8282 9.25182C9.57859 9.16144 9.35982 8.88023 9.35982 8.50633C9.35982 8.01738 9.71108 7.72708 10.0186 7.72708Z" fill="white"/>
<path d="M11.7033 13.1149V11.4205L12.1719 11.5902C12.4215 11.6805 12.6403 11.9618 12.6403 12.3357C12.6403 12.8246 12.289 13.1149 11.9815 13.1149H11.7033Z" fill="white"/>
<path fill-rule="evenodd" clip-rule="evenodd" d="M7.49061 0.382453C9.80219 -0.127485 12.1978 -0.127484 14.5094 0.382454L14.9929 0.489125C18.2213 1.20131 20.7665 3.6721 21.5635 6.8677C22.1455 9.20116 22.1455 11.641 21.5635 13.9744C20.7665 17.17 18.2213 19.6408 14.9929 20.353L14.5094 20.4597C12.1978 20.9696 9.80218 20.9696 7.49062 20.4597L7.00706 20.353C3.7787 19.6408 1.23355 17.17 0.436506 13.9744C-0.145502 11.641 -0.145502 9.20115 0.436507 6.86769C1.23355 3.6721 3.77871 1.20131 7.00706 0.489126L7.49061 0.382453ZM11.7033 5.75441C11.7033 5.36781 11.3885 5.05442 11.0003 5.05442C10.6121 5.05442 10.2973 5.36781 10.2973 5.75441V6.32709H10.0186C8.82197 6.32709 7.9539 7.36135 7.9539 8.50633C7.9539 9.40586 8.48525 10.2552 9.34774 10.5675L10.2973 10.9114V13.1149H10.219C9.80081 13.1149 9.35982 12.7271 9.35982 12.1179C9.35982 11.7314 9.04509 11.418 8.65686 11.418C8.26863 11.418 7.9539 11.7314 7.9539 12.1179C7.9539 13.3832 8.91169 14.5149 10.219 14.5149H10.2973V15.0877C10.2973 15.4743 10.6121 15.7876 11.0003 15.7876C11.3885 15.7876 11.7033 15.4743 11.7033 15.0877V14.5149H11.9815C13.1781 14.5149 14.0462 13.4806 14.0462 12.3357C14.0462 11.4361 13.5149 10.5868 12.6524 10.2745L11.7033 9.93079V7.72708H11.7811C12.1993 7.72708 12.6403 8.11485 12.6403 8.72404C12.6403 9.11063 12.955 9.42403 13.3432 9.42403C13.7315 9.42403 14.0462 9.11063 14.0462 8.72404C14.0462 7.45882 13.0884 6.32709 11.7811 6.32709H11.7033V5.75441Z" fill="white"/>
</svg>
