<svg width="22" height="20" viewBox="0 0 22 20" fill="none" xmlns="http://www.w3.org/2000/svg">
<path fill-rule="evenodd" clip-rule="evenodd" d="M6.45936 0.533315C3.54406 1.14842 1.22246 3.3776 0.462612 6.29137C-0.154204 8.65664 -0.154204 11.1434 0.462612 13.5086C1.22246 16.4224 3.54406 18.6516 6.45936 19.2667L7.01644 19.3842C9.6439 19.9386 12.3561 19.9386 14.9836 19.3842L15.5406 19.2667C18.4559 18.6516 20.7775 16.4224 21.5374 13.5086C22.1542 11.1434 22.1542 8.65664 21.5374 6.29137C20.7775 3.37761 18.4559 1.14842 15.5406 0.533313L14.9836 0.415778C12.3561 -0.138593 9.64389 -0.138592 7.01644 0.415778L6.45936 0.533315ZM13.7623 6.24397C13.6204 6.02855 13.3815 5.89916 13.1256 5.89916C12.8698 5.89916 12.6308 6.02855 12.4889 6.24397L8.87434 11.7305L7.38542 9.47045C7.24349 9.25502 7.00456 9.12563 6.74871 9.12563H4.62307C4.20044 9.12563 3.85784 9.47232 3.85784 9.89998C3.85784 10.3276 4.20044 10.6743 4.62307 10.6743H6.33917L8.23764 13.556C8.37956 13.7714 8.61849 13.9008 8.87434 13.9008C9.1302 13.9008 9.36913 13.7714 9.51105 13.556L13.1256 8.0695L14.6145 10.3295C14.7565 10.5449 14.9954 10.6743 15.2513 10.6743H17.3769C17.7995 10.6743 18.1421 10.3276 18.1421 9.89998C18.1421 9.47232 17.7995 9.12563 17.3769 9.12563H15.6608L13.7623 6.24397Z" fill="white"/>
</svg>
