<svg width="22" height="22" viewBox="0 0 22 22" fill="none" xmlns="http://www.w3.org/2000/svg">
<path fill-rule="evenodd" clip-rule="evenodd" d="M8.8 19.8C8.8 21.015 9.78497 22 11 22C12.215 22 13.2 21.015 13.2 19.8V18.3811C13.7121 18.2287 14.2019 18.0245 14.6632 17.7745L15.6669 18.7782C16.5261 19.6373 17.919 19.6373 18.7782 18.7782C19.6373 17.919 19.6373 16.5261 18.7782 15.6669L17.7745 14.6632C18.0245 14.2019 18.2287 13.7121 18.3811 13.2H19.8C21.015 13.2 22 12.215 22 11C22 9.78498 21.015 8.8 19.8 8.8H18.3811C18.2287 8.28791 18.0245 7.79814 17.7745 7.33678L18.7782 6.3331C19.6373 5.47395 19.6373 4.08099 18.7782 3.22183C17.919 2.36268 16.526 2.36268 15.6669 3.22183L14.6632 4.22551C14.2019 3.97552 13.7121 3.77127 13.2 3.61887V2.2C13.2 0.984974 12.215 0 11 0C9.78497 0 8.8 0.984974 8.8 2.2V3.61887C8.28791 3.77127 7.79814 3.97552 7.33678 4.22552L6.3331 3.22183C5.47395 2.36268 4.08099 2.36268 3.22183 3.22184C2.36268 4.08099 2.36268 5.47395 3.22183 6.3331L4.22551 7.33679C3.97552 7.79814 3.77127 8.28791 3.61887 8.8H2.2C0.984973 8.8 0 9.78498 0 11C0 12.215 0.984974 13.2 2.2 13.2H3.61887C3.77127 13.7121 3.97552 14.2019 4.22551 14.6632L3.22181 15.6669C2.36266 16.5261 2.36266 17.919 3.22181 18.7782C4.08097 19.6373 5.47393 19.6373 6.33308 18.7782L7.33678 17.7745C7.79814 18.0245 8.28791 18.2287 8.8 18.3811V19.8ZM11 14.3C12.8225 14.3 14.3 12.8225 14.3 11C14.3 9.17745 12.8225 7.69999 11 7.69999C9.17745 7.69999 7.69999 9.17745 7.69999 11C7.69999 12.8225 9.17745 14.3 11 14.3Z" fill="white"/>
</svg>
