<svg width="21" height="24" viewBox="0 0 21 24" fill="none" xmlns="http://www.w3.org/2000/svg">
<path fill-rule="evenodd" clip-rule="evenodd" d="M6.25445 20.0593C6.23669 19.977 6.22231 19.8944 6.21127 19.8116C5.29286 19.6974 4.37779 19.5464 3.46821 19.3586L3.01742 19.2655C1.26148 18.9028 0 17.337 0 15.5202C0 14.2131 0.646964 13.0607 1.63183 12.3719C1.35064 10.5485 1.45114 8.68473 1.92762 6.90204L1.99331 6.65626C2.77939 3.71521 5.00592 1.3714 7.85776 0.434272C9.62213 -0.145511 11.5422 -0.147176 13.3074 0.443829C16.1175 1.38465 18.2668 3.70396 19.0179 6.60615L19.1057 6.94556C19.5642 8.71685 19.6535 10.565 19.3687 12.3723C20.3533 13.0611 21 14.2133 21 15.5202C21 17.337 19.7385 18.9028 17.9826 19.2655L17.5318 19.3586C16.6222 19.5464 15.7071 19.6974 14.7887 19.8116C14.7777 19.8944 14.7633 19.977 14.7456 20.0593L14.6586 20.4624C14.3406 21.9364 13.2181 23.0955 11.7704 23.445L11.5353 23.5018C10.8546 23.6661 10.1454 23.6661 9.46469 23.5018L9.22957 23.445C7.78187 23.0955 6.65944 21.9364 6.34142 20.4624L6.25445 20.0593ZM8.08273 19.9931C9.69233 20.1053 11.3077 20.1053 12.9173 19.9931L12.9002 20.0725C12.7299 20.8618 12.1288 21.4825 11.3535 21.6696L11.1184 21.7264C10.7118 21.8245 10.2882 21.8245 9.88159 21.7264L9.64647 21.6696C8.87122 21.4825 8.27015 20.8618 8.09984 20.0724L8.08273 19.9931Z" fill="white"/>
</svg>
